<svg xmlns="http://www.w3.org/2000/svg" shape-rendering="crispEdges" viewBox="0 -.5 16 16"><path stroke="#a5b5ad" d="M4 0h1m6 0h1M2 1h1m10 0h1M1 2h1m12 0h1M0 4h1m14 0h1M0 11h1m14 0h1M1 13h1m12 0h1M2 14h1m1 1h1m6 0h1"/><path stroke="#fff" d="M5 0h6M3 1h2m6 0h2M2 2h1m10 0h1M1 3h1m12 0h1M1 4h1m12 0h1M0 5h1m14 0h1M0 6h1m2 0h1m8 0h1m2 0h1M0 7h1m2 0h2m6 0h2m2 0h1M0 8h1m2 0h2m1 0h1m2 0h1m1 0h2m2 0h1M0 9h1m1 0h1m10 0h1m1 0h1M0 10h1m2 0h2m6 0h2m2 0h1M1 11h1m1 0h10m1 0h1M1 12h1m2 0h8m2 0h1M2 13h1m3 0h4m3 0h1M3 14h2m6 0h2m-8 1h6"/><path stroke="#424242" d="M5 1h6M3 2h2m6 0h2M2 3h2m8 0h2M2 4h1m10 0h1M1 5h1m1 0h1m8 0h1m1 0h1M1 6h1m2 0h1m1 0h1m2 0h1m1 0h1m2 0h1M1 7h1m3 0h2m2 0h2m3 0h1M1 8h1m3 0h1m4 0h1m3 0h1M1 9h1m12 0h1M1 10h1m12 0h1M2 11h1m10 0h1M2 12h2m8 0h2M3 13h2m6 0h2m-8 1h6"/><path stroke="#a55a52" d="M5 2h1m4 0h1M2 5h1m10 0h1"/><path stroke="#e77352" d="M6 2h4M4 3h8M3 4h10M4 5h8M2 6h1m2 0h1m1 0h2m1 0h1m2 0h1M2 7h1m4 0h2m4 0h1M2 8h1m4 0h2m4 0h1M3 9h10m-8 1h6"/><path stroke="#848484" d="M2 10h1m10 0h1m-9 3h1m4 0h1"/></svg>